<svg width="27" height="27" viewBox="0 0 27 27" fill="none" xmlns="http://www.w3.org/2000/svg">
<path d="M24.5075 15.5475C23.6557 14.6813 22.53 14.1538 21.335 14.0423C22.3666 13.107 23.0174 11.7566 23.0174 10.2482C23.0174 7.4262 20.7485 5.1394 17.9479 5.1394C15.2732 5.1394 13.0833 7.22749 12.8932 9.87384C15.2727 10.9113 16.9426 13.3013 16.9426 16.0761C16.9426 17.0894 16.7138 18.0796 16.2884 18.9782C16.9012 19.301 17.4659 19.7182 17.9583 20.2188C19.2208 21.5 19.938 23.2713 19.9244 25.0773L19.9233 25.114L19.9223 25.1453L19.8776 26H25.9497L25.9998 19.2318C26.0102 17.8513 25.4737 16.5273 24.5075 15.5475Z" fill="#3282B8" stroke="#3282B8" stroke-width="1.39427"/>
<path d="M13.6268 19.8713C14.6578 18.9365 15.3108 17.5856 15.3108 16.0772C15.3108 13.2546 13.0408 10.9673 10.2408 10.9673C7.44029 10.9673 5.1708 13.2546 5.1708 16.0772C5.1708 17.5829 5.82109 18.9327 6.85046 19.868C4.21442 20.0739 2.13228 22.2739 2.11322 24.9829L2.06311 26H9.77133H18.242L18.2922 25.0592C18.302 23.6792 17.7649 22.3552 16.7993 21.3754C15.9464 20.5086 14.8212 19.9827 13.6268 19.8713Z" fill="#3282B8" stroke="#3282B8" stroke-width="1.39427"/>
<path d="M4.26999 7.14516V9.04332C4.26999 9.82937 4.90395 10.4678 5.68441 10.4678C6.46596 10.4678 7.09883 9.82937 7.09883 9.04332V7.14516H8.98C9.76046 7.14516 10.3939 6.50621 10.3939 5.71961C10.3939 4.93356 9.76046 4.29462 8.98 4.29462H7.09883V2.42445C7.09883 1.63784 6.46596 1 5.68441 1C4.90395 1 4.26999 1.63784 4.26999 2.42445V4.29407H2.41387C1.63232 4.29407 1 4.93301 1 5.71906C1 6.50566 1.63232 7.14461 2.41387 7.14461L4.26999 7.14516Z" fill="#3282B8" stroke="#3282B8" stroke-width="1.39427"/>
</svg>
