<svg width="64" height="64" viewBox="0 0 64 64" fill="none" xmlns="http://www.w3.org/2000/svg">
<path d="M31 59C16.64 59 5 47.36 5 33C5 18.64 16.64 7 31 7C45.36 7 57 18.64 57 33C57 47.36 45.36 59 31 59ZM43.876 31.876C43.876 30.772 42.98 29.876 41.876 29.876H33.876V21.876C33.876 20.772 32.982 19.876 31.876 19.876H29.876C28.77 19.876 27.876 20.772 27.876 21.876V29.876H19.876C18.77 29.876 17.876 30.772 17.876 31.876V33.876C17.876 34.982 18.77 35.876 19.876 35.876H27.876V43.876C27.876 44.982 28.77 45.876 29.876 45.876H31.876C32.982 45.876 33.876 44.982 33.876 43.876V35.876H41.876C42.98 35.876 43.876 34.982 43.876 33.876V31.876Z" fill="#3282B8"/>
</svg>
