<svg width="64" height="64" viewBox="0 0 64 64" fill="none" xmlns="http://www.w3.org/2000/svg">
<path d="M50 2C49.447 2 49 2.447 49 3V4V6V10C49 10.553 49.447 11 50 11C50.553 11 51 10.553 51 10V6V4V3C51 2.447 50.553 2 50 2Z" fill="#506C7F"/>
<path d="M14 2C13.447 2 13 2.447 13 3V4V6V10C13 10.553 13.447 11 14 11C14.553 11 15 10.553 15 10V6V4V3C15 2.447 14.553 2 14 2Z" fill="#506C7F"/>
<path d="M62 60C62 61.104 61.104 62 60 62H4C2.896 62 2 61.104 2 60V17H62V60Z" fill="#82D3B8"/>
<path d="M62 15H2V8C2 6.896 2.896 6 4 6H11V10C11 11.657 12.343 13 14 13C15.657 13 17 11.657 17 10V6H47V10C47 11.657 48.343 13 50 13C51.657 13 53 11.657 53 10V6H60C61.104 6 62 6.896 62 8V15Z" fill="#F76D57"/>
<path d="M11 54H17C17.553 54 18 53.553 18 53V48C18 47.447 17.553 47 17 47H11C10.447 47 10 47.447 10 48V53C10 53.553 10.447 54 11 54ZM12 49H16V52H12V49Z" fill="#4A4A4A"/>
<path d="M23 54H29C29.553 54 30 53.553 30 53V48C30 47.447 29.553 47 29 47H23C22.447 47 22 47.447 22 48V53C22 53.553 22.447 54 23 54ZM24 49H28V52H24V49Z" fill="#4A4A4A"/>
<path d="M35 54H41C41.553 54 42 53.553 42 53V48C42 47.447 41.553 47 41 47H35C34.447 47 34 47.447 34 48V53C34 53.553 34.447 54 35 54ZM36 49H40V52H36V49Z" fill="#4A4A4A"/>
<path d="M11 43H17C17.553 43 18 42.553 18 42V37C18 36.447 17.553 36 17 36H11C10.447 36 10 36.447 10 37V42C10 42.553 10.447 43 11 43ZM12 38H16V41H12V38Z" fill="#4A4A4A"/>
<path d="M23 43H29C29.553 43 30 42.553 30 42V37C30 36.447 29.553 36 29 36H23C22.447 36 22 36.447 22 37V42C22 42.553 22.447 43 23 43ZM24 38H28V41H24V38Z" fill="#4A4A4A"/>
<path d="M35 43H41C41.553 43 42 42.553 42 42V37C42 36.447 41.553 36 41 36H35C34.447 36 34 36.447 34 37V42C34 42.553 34.447 43 35 43ZM36 38H40V41H36V38Z" fill="#4A4A4A"/>
<path d="M47 43H53C53.553 43 54 42.553 54 42V37C54 36.447 53.553 36 53 36H47C46.447 36 46 36.447 46 37V42C46 42.553 46.447 43 47 43ZM48 38H52V41H48V38Z" fill="#4A4A4A"/>
<path d="M11 32H17C17.553 32 18 31.553 18 31V26C18 25.447 17.553 25 17 25H11C10.447 25 10 25.447 10 26V31C10 31.553 10.447 32 11 32ZM12 27H16V30H12V27Z" fill="#4A4A4A"/>
<path d="M23 32H29C29.553 32 30 31.553 30 31V26C30 25.447 29.553 25 29 25H23C22.447 25 22 25.447 22 26V31C22 31.553 22.447 32 23 32ZM24 27H28V30H24V27Z" fill="#4A4A4A"/>
<path d="M35 32H41C41.553 32 42 31.553 42 31V26C42 25.447 41.553 25 41 25H35C34.447 25 34 25.447 34 26V31C34 31.553 34.447 32 35 32ZM36 27H40V30H36V27Z" fill="#4A4A4A"/>
<path d="M47 32H53C53.553 32 54 31.553 54 31V26C54 25.447 53.553 25 53 25H47C46.447 25 46 25.447 46 26V31C46 31.553 46.447 32 47 32ZM48 27H52V30H48V27Z" fill="#4A4A4A"/>
<path d="M60 4H53V3C53 1.343 51.657 0 50 0C48.343 0 47 1.343 47 3V4H17V3C17 1.343 15.657 0 14 0C12.343 0 11 1.343 11 3V4H4C1.789 4 0 5.789 0 8V60C0 62.211 1.789 64 4 64H60C62.211 64 64 62.211 64 60V8C64 5.789 62.211 4 60 4ZM49 3C49 2.447 49.447 2 50 2C50.553 2 51 2.447 51 3V10C51 10.553 50.553 11 50 11C49.447 11 49 10.553 49 10V3ZM13 3C13 2.447 13.447 2 14 2C14.553 2 15 2.447 15 3V10C15 10.553 14.553 11 14 11C13.447 11 13 10.553 13 10V3ZM62 60C62 61.104 61.104 62 60 62H4C2.896 62 2 61.104 2 60V17H62V60ZM62 15H2V8C2 6.896 2.896 6 4 6H11V10C11 11.657 12.343 13 14 13C15.657 13 17 11.657 17 10V6H47V10C47 11.657 48.343 13 50 13C51.657 13 53 11.657 53 10V6H60C61.104 6 62 6.896 62 8V15Z" fill="#4A4A4A"/>
</svg>
