<svg width="46" height="46" viewBox="0 0 46 46" fill="none" xmlns="http://www.w3.org/2000/svg">
<path fill-rule="evenodd" clip-rule="evenodd" d="M40.25 15.3333C40.25 12.1577 37.6757 9.58331 34.5 9.58331H19.1666C15.991 9.58331 13.4166 12.1577 13.4166 15.3333V38.3333C13.4166 41.509 15.991 44.0833 19.1666 44.0833H34.5C37.6757 44.0833 40.25 41.509 40.25 38.3333V15.3333ZM36.4166 15.3333C36.4166 14.2748 35.5585 13.4166 34.5 13.4166H19.1666C18.1081 13.4166 17.25 14.2748 17.25 15.3333V38.3333C17.25 39.3919 18.1081 40.25 19.1666 40.25H34.5C35.5585 40.25 36.4166 39.3919 36.4166 38.3333V15.3333Z" fill="white"/>
<path d="M11.5 5.74999H30.6667C31.7252 5.74999 32.5833 4.89186 32.5833 3.83332C32.5833 2.77479 31.7252 1.91666 30.6667 1.91666H11.5C8.32437 1.91666 5.75 4.49103 5.75 7.66666V34.5C5.75 35.5586 6.60813 36.4167 7.66667 36.4167C8.7252 36.4167 9.58333 35.5586 9.58333 34.5V7.66666C9.58333 6.60812 10.4415 5.74999 11.5 5.74999Z" fill="white"/>
</svg>
