<svg width="36" height="36" viewBox="0 0 36 36" fill="none" xmlns="http://www.w3.org/2000/svg">
<path d="M21.15 18L27.3375 11.8125C28.2375 10.9125 28.2375 9.5625 27.3375 8.6625C27 8.2125 26.4375 7.875 25.875 7.875C25.3125 7.875 24.75 8.1 24.3 8.55L18 14.85L11.8125 8.6625C10.9125 7.7625 9.45 7.7625 8.6625 8.6625C8.2125 9 7.875 9.5625 7.875 10.2375C7.875 10.9125 8.1 11.3625 8.55 11.8125L14.7375 18L8.55 24.1875C8.2125 24.6375 7.875 25.2 7.875 25.875C7.875 26.4375 8.1 27 8.55 27.45C9 27.9 9.5625 28.125 10.125 28.125C10.6875 28.125 11.25 27.9 11.7 27.45L17.8875 21.2625L24.075 27.45C24.975 28.35 26.4375 28.35 27.225 27.45C28.125 26.55 28.125 25.0875 27.225 24.3L21.15 18Z" fill="#AA0E0E"/>
</svg>
