<svg width="20" height="25" viewBox="0 0 20 25" fill="none" xmlns="http://www.w3.org/2000/svg">
<path d="M18.6145 6.85483C18.7676 6.85483 18.8916 6.74294 18.8916 6.60483V4.56558C18.8916 4.42747 18.7676 4.31558 18.6145 4.31558H1.3855C1.34911 4.31557 1.31307 4.32203 1.27945 4.33459C1.24583 4.34716 1.21528 4.36557 1.18955 4.38879C1.16381 4.412 1.1434 4.43956 1.12948 4.4699C1.11556 4.50023 1.10839 4.53274 1.1084 4.56558V6.60483C1.1084 6.74294 1.23242 6.85483 1.3855 6.85483H18.6145ZM18.6145 7.85483H1.3855C0.620283 7.85483 0 7.29522 0 6.60483V4.56558C0 3.8752 0.620283 3.31558 1.3855 3.31558H18.6145C19.3797 3.31558 20 3.8752 20 4.56558V6.60483C20 7.29522 19.3797 7.85483 18.6145 7.85483Z" fill="#3282B8"/>
<path d="M17.9535 7.43872L16.3773 23.7095C16.3626 23.862 16.1957 24 16.0258 24H3.97444C3.80461 24 3.63761 23.862 3.62292 23.7096L2.04675 7.43872C2.02009 7.16362 1.75133 6.96011 1.44641 6.98416C1.14149 7.0082 0.915914 7.25068 0.942568 7.52578L2.51871 23.7965C2.58325 24.4655 3.22981 25 3.97444 25H16.0258C16.7704 25 17.417 24.4655 17.4816 23.7964L19.0577 7.52578C19.0843 7.25068 18.8588 7.00818 18.5538 6.98416C18.2489 6.96013 17.9801 7.16362 17.9535 7.43872ZM7.54086 3.78623V1.25249C7.54086 1.1127 7.66537 1 7.81796 1H12.1823C12.3349 1 12.4594 1.11272 12.4594 1.25249V3.78623C12.4594 4.06238 12.7075 4.28623 13.0136 4.28623C13.3197 4.28623 13.5678 4.06238 13.5678 3.78623V1.25249C13.5678 0.561182 12.9479 0 12.1823 0H7.81796C7.05236 0 6.43246 0.561206 6.43246 1.25249V3.78623C6.43246 4.06238 6.68058 4.28623 6.98666 4.28623C7.29274 4.28623 7.54086 4.06238 7.54086 3.78623Z" fill="#3282B8"/>
<path d="M9.54276 10.0299V21.2839C9.54276 21.56 9.79088 21.7839 10.097 21.7839C10.403 21.7839 10.6512 21.56 10.6512 21.2839V10.0299C10.6512 9.75371 10.403 9.52986 10.097 9.52986C9.79088 9.52986 9.54276 9.75371 9.54276 10.0299ZM4.33535 10.073L5.41604 21.327C5.44245 21.6021 5.71109 21.8058 6.016 21.782C6.32092 21.7582 6.54672 21.5158 6.52031 21.2407L5.43961 9.9867C5.4132 9.71158 5.14457 9.50789 4.83965 9.53172C4.53473 9.55555 4.30894 9.7979 4.33535 10.073ZM14.5604 9.9867L13.4797 21.2407C13.4533 21.5158 13.679 21.7582 13.984 21.782C14.2889 21.8058 14.5575 21.6021 14.5839 21.327L15.6646 10.073C15.691 9.79788 15.4653 9.55555 15.1603 9.53172C14.8554 9.50789 14.5868 9.71158 14.5604 9.9867Z" fill="#3282B8"/>
</svg>
