<svg width="36" height="36" viewBox="0 0 36 36" fill="none" xmlns="http://www.w3.org/2000/svg">
<path fill-rule="evenodd" clip-rule="evenodd" d="M36 32.5714V36H27V32.5714H36ZM25.2 32.5714V36H21.6V32.5714H25.2ZM36 27.4286V30.8571H27V27.4286H36ZM25.2 27.4286V30.8571H21.6V27.4286H25.2ZM19.8 27.4286V30.8571H0V27.4286H19.8ZM36 22.2857V25.7143H27V22.2857H36ZM25.2 22.2857V25.7143H21.6V22.2857H25.2ZM16.2 0V16.92L24.048 10.68L26.352 13.32L14.4 22.8L2.448 13.32L4.752 10.68L12.6 16.92V0H16.2Z" fill="#3282B8"/>
</svg>
