<svg width="64" height="64" viewBox="0 0 64 64" fill="none" xmlns="http://www.w3.org/2000/svg">
<path d="M10.424 26C10.8628 28.7998 11.7302 31.5166 12.9983 34.0528H18.9983C20.2663 31.5169 21.1315 28.8001 21.5661 26H10.424Z" fill="#8C8C8C" stroke="black" stroke-width="0.125"/>
<path d="M16 29C20.4183 29 24 27.2091 24 25C24 22.7909 20.4183 21 16 21C11.5817 21 8 22.7909 8 25C8 27.2091 11.5817 29 16 29Z" fill="#E36464" stroke="black" stroke-width="0.125"/>
<path d="M21 25L19 19H13L11 25C14.2097 26.2839 17.7903 26.2839 21 25Z" fill="#F04265" stroke="black" stroke-width="0.125"/>
<path d="M40 56H24V62H40V56Z" fill="#BEBEBE" stroke="black" stroke-width="0.125"/>
<path d="M17.3137 7.5825L21.8962 18.6731L32.9868 14.0906L28.4043 3L17.3137 7.5825Z" fill="#F4F4F4" stroke="black" stroke-width="0.125"/>
<path d="M13.0549 9.88496L12.5406 9.01546L28.2177 2.5379L28.5995 3.4621L13.0549 9.88496Z" fill="#BEBEBE" stroke="black" stroke-width="0.125"/>
<path d="M28.3851 9.5C28.0281 8.63592 27.3559 7.96265 26.4925 7.60413C25.6291 7.24548 24.6777 7.24469 23.8138 7.60181C22.9497 7.9588 22.2765 8.63092 21.9179 9.49432C21.5594 10.3577 21.5586 11.3091 21.9156 12.1731C22.4726 13.5211 23.7796 14.3365 25.1549 14.3365C25.5994 14.3365 26.0512 14.2513 26.4869 14.0713C28.2705 13.3343 29.122 11.2836 28.3851 9.5ZM24.1957 8.526C24.5036 8.39874 24.8269 8.33514 25.1504 8.33514C25.4752 8.33514 25.8001 8.39935 26.109 8.52765C26.5694 8.71879 26.9533 9.03541 27.2246 9.44021L25.211 10.2723L23.3961 9.05456C23.623 8.83128 23.8926 8.65121 24.1957 8.526ZM22.6955 11.3117C22.6023 10.8358 22.6502 10.3432 22.8389 9.88496L24.1002 10.7312L22.6955 11.3117ZM23.0782 12.2355L24.4821 11.6554L24.1867 13.1417C23.745 12.9571 23.3558 12.647 23.0782 12.2355ZM26.1051 13.1471C25.7984 13.2737 25.4808 13.3332 25.1678 13.3349L25.5928 11.1964L27.6056 10.3648C27.8253 11.5063 27.2203 12.6862 26.1051 13.1471Z" fill="#75BBAD" stroke="black" stroke-width="0.125"/>
<path d="M31.7305 2.64317L25.8134 13.0829L36.2531 19L42.1702 8.56027L31.7305 2.64317Z" fill="#F04265" stroke="black" stroke-width="0.125"/>
<path d="M35.7176 7.77667C34.9043 7.31573 33.9601 7.19904 33.0591 7.44812C32.158 7.69726 31.4078 8.28241 30.9468 9.09576C29.9952 10.7748 30.587 12.9149 32.266 13.8665C32.8096 14.1746 33.4016 14.3209 33.9859 14.3209C35.2062 14.3209 36.3933 13.6827 37.0367 12.5474C37.9883 10.8684 37.3966 8.72827 35.7176 7.77667ZM36.3695 11.5945L35.0511 10.8473L36.4025 10.1656C36.528 10.6266 36.5228 11.1232 36.3695 11.5945ZM33.996 8.32202C34.4134 8.32202 34.8362 8.42657 35.2245 8.64667C35.5144 8.811 35.7579 9.02574 35.9525 9.27267L34.0056 10.2547L32.1074 9.17879C32.589 8.62605 33.2844 8.32202 33.996 8.32202ZM31.6142 10.0487L33.5124 11.1246L33.6701 13.2994C33.3583 13.2593 33.049 13.1608 32.759 12.9965C31.7087 12.4012 31.2543 11.1548 31.6142 10.0487ZM34.6675 13.2268L34.558 11.7172L35.8764 12.4644C35.5508 12.8381 35.1274 13.0976 34.6675 13.2268Z" fill="#F4F4F4" stroke="black" stroke-width="0.125"/>
<path d="M31.9771 2.2082L31.484 3.07817L46.5961 11.6435L47.0892 10.7735L31.9771 2.2082Z" fill="#BEBEBE" stroke="black" stroke-width="0.125"/>
<path d="M24 58H9V62H24V58Z" fill="#8C8C8C" stroke="black" stroke-width="0.125"/>
<path d="M59.1631 22.3121L52 13V11C52 10.3705 51.7036 9.77771 51.2 9.4L49.3803 8.03521C48.5872 7.44043 47.4782 7.51631 46.7735 8.21357L45.7997 9.17722C45.2962 9.67539 45.0938 10.4026 45.2675 11.0893L45.7377 12.9485C45.9062 13.6147 46.4046 14.1477 47.0582 14.3601C47.9202 14.6401 49 15 49 15L55.436 23.8495C56.4138 25.194 56.6594 26.9366 56.0913 28.499L53.4787 35.6835C53.1913 36.4739 52.4402 37 51.5992 37H51V34C52.3166 32.0251 53.1742 29.7804 53.5099 27.4307L53.6796 26.2426C53.8848 24.8067 53.5111 23.3481 52.6407 22.1877C51.6076 20.8102 49.9863 19.9995 48.2645 19.9996C48.0636 19.9996 47.8612 19.9996 47.6608 19.9996C45.986 19.9996 44.4089 20.7881 43.4041 22.1279L43.3669 22.1774C42.4889 23.3482 42.1152 24.8067 42.3204 26.2426L42.4901 27.4307C42.8258 29.7804 43.6834 32.0251 45 34V37H40V62H55V47L60.5287 30.414C61.4486 27.6543 60.9368 24.6178 59.1631 22.3121Z" fill="#DFDFDF" stroke="black" stroke-width="0.125"/>
<path d="M59.2941 34.1176L54.7143 32.2857L53.4787 35.6835C53.1913 36.4739 52.4402 37 51.5992 37H40V58H55V47L59.2941 34.1176Z" fill="#82D3B8" stroke="black" stroke-width="0.125"/>
<path d="M43.4041 22.1279L43.367 22.1774C42.4889 23.3482 42.1153 24.8067 42.3205 26.2426L42.4902 27.4307C42.8259 29.7804 43.6835 32.0251 45.0001 34L51.0001 34C52.3167 32.0251 53.1743 29.7804 53.51 27.4307L53.6797 26.2426C53.8848 24.8067 53.5111 23.3481 52.6408 22.1877C51.6077 20.8102 49.9864 19.9995 48.2645 19.9996C48.0637 19.9996 47.8613 19.9996 47.6608 19.9996C45.986 19.9996 44.409 20.7881 43.4041 22.1279Z" fill="#8C8C8C" stroke="black" stroke-width="0.125"/>
<path d="M55 58H40V62H55V58Z" fill="#8C8C8C" stroke="black" stroke-width="0.125"/>
<path d="M19.0001 37V34.0457H13.0001V37H12.9452C11.6998 37 10.5053 36.5052 9.62465 35.6246C8.61867 34.6186 8.22272 33.154 8.58478 31.7782L13.0001 15L14.4143 13.5858C14.7894 13.2107 15.0001 12.702 15.0001 12.1716V10.2361C15.0001 9.47852 14.5721 8.78599 13.8945 8.44721L12.493 7.74647C11.6285 7.3142 10.5785 7.56206 9.99859 8.33532L8.62883 10.1617C8.23505 10.6867 8.12392 11.3715 8.33146 11.9941L9.00008 14L3.59148 30.2258C2.59036 33.2292 3.07052 36.5292 4.88599 39.1227L9.00008 45V58H24.0001V37H19.0001Z" fill="#DFDFDF" stroke="black" stroke-width="0.125"/>
<path d="M9.62457 35.6246C8.97762 34.9776 8.58467 34.1407 8.48167 33.26L8.48021 33.2599L3.37732 35.8113C3.66997 36.9832 4.17508 38.1072 4.88592 39.1227L9.00001 45V58H24V37H12.9452C11.6997 37 10.5052 36.5052 9.62457 35.6246Z" fill="#82D3B8" stroke="black" stroke-width="0.125"/>
<path d="M35 37V33.4653H29V37H11V37.5683C11 39.5426 12.4404 41.2216 14.3918 41.5218L24 42.9992V56H40V43L49.1843 41.587C51.3795 41.2493 53 39.3604 53 37.1394V37H35Z" fill="#CECECE" stroke="black" stroke-width="0.125"/>
<path d="M42.0526 42.6842L43 37H35C33.1833 38.2111 30.8167 38.2111 29 37H21L21.9473 42.6836L24 42.9992V56H40V43L42.0526 42.6842Z" fill="#E36464" stroke="black" stroke-width="0.125"/>
<path d="M38.0905 41.2029L37.8474 40.8381C37.3471 40.0877 36.4064 39.765 35.5508 40.0502L34.4479 40.4178C34.1533 40.516 33.8857 40.6814 33.6662 40.901L32 42.5671L26.7726 43.4255L20.4352 42.4516L20 47.5671L24 48L34 45.5671H35.1716C35.702 45.5671 36.2107 45.3564 36.5858 44.9813L37.8406 43.7265C38.5147 43.0524 38.6193 41.9961 38.0905 41.2029Z" fill="#DFDFDF" stroke="black" stroke-width="0.125"/>
<path d="M20.0694 42.3954L19.6434 47.5285L24.0001 48L24.9953 43.1522L20.0694 42.3954Z" fill="#82D3B8" stroke="black" stroke-width="0.125"/>
<path d="M38.4311 24.6466L38.0001 24C38.508 21.9682 36.9713 20 34.8769 20H34.0001C32.8955 18.8954 31.1046 18.8954 30.0001 20L28.9269 20C26.8954 20 25.3718 21.8585 25.7702 23.8506L26.0001 25C24.8955 26.1046 24.8955 27.8954 26.0001 29L25.873 29.3811C25.3721 30.8838 26.0524 32.5262 27.4692 33.2345L29.0001 34C30.8167 35.2111 33.1834 35.2111 35.0001 34L35.7752 33.6124C37.4875 32.7562 38.062 30.593 37.0001 29L37.6467 28.5689C38.9464 27.7024 39.2976 25.9464 38.4311 24.6466Z" fill="#EAB84B" stroke="black" stroke-width="0.125"/>
<path d="M20.0539 47.0701L19.9463 48.0642L23.9463 48.4971L24.0539 47.5029L20.0539 47.0701Z" fill="#F4C762" stroke="black" stroke-width="0.125"/>
<path d="M59.5595 22.0072L52.5 12.83V11C52.5 10.2173 52.1262 9.4696 51.5 9L49.6803 7.63519C48.6966 6.89752 47.2957 6.99329 46.4219 7.85815L45.448 8.82184C45.2321 9.03552 45.0615 9.28486 44.9379 9.55421L31.977 2.20819C31.7367 2.07196 31.4316 2.15637 31.2955 2.39667L29.7945 5.04497L28.8706 2.80908C28.82 2.68652 28.7227 2.58911 28.6003 2.53821C28.4779 2.48743 28.3402 2.48724 28.2176 2.5379L14.473 8.217C14.3619 8.13634 14.244 8.06296 14.1181 8L12.7166 7.29926C11.6351 6.75855 10.3239 7.06812 9.59854 8.03534L8.22873 9.86169C7.73666 10.5179 7.59769 11.3741 7.85702 12.1523L8.47299 14L3.11704 30.0677C2.07077 33.2066 2.57895 36.6989 4.47635 39.4095L8.50003 45.1576V62H9.50003V58.5H23.5V62H24.5V56.5H39.5V62H40.5V58.5H54.5V62H55.5V47.0811L61.003 30.5722C61.977 27.6503 61.4373 24.4485 59.5595 22.0072ZM53.0089 35.5126C52.7942 36.1032 52.2276 36.5 51.5992 36.5H51.5V34.1501C52.8029 32.155 53.6681 29.8595 54.0049 27.5014L54.1747 26.3134C54.4001 24.735 53.9975 23.1632 53.0408 21.8877C51.9193 20.3923 50.1337 19.4995 48.2645 19.4996H47.6608C45.8383 19.4996 44.0976 20.37 43.004 21.828L42.9669 21.8774C42.0053 23.1595 41.5999 24.7349 41.8254 26.3134L41.9951 27.5013C42.332 29.8595 43.1972 32.155 44.5 34.1501V36.5H35.5V34.309L35.9987 34.0596C36.9431 33.5874 37.6402 32.7313 37.9112 31.7108C38.1391 30.8529 38.0478 29.9466 37.665 29.1576L37.924 28.9849C38.6637 28.4918 39.1671 27.7401 39.3415 26.8683C39.5158 25.9965 39.3403 25.109 38.8471 24.3693L38.5337 23.899C38.7302 22.8499 38.4713 21.7794 37.8084 20.9304C37.0987 20.0214 36.0302 19.5 34.8769 19.5H34.1975C32.9449 18.3973 31.0552 18.3973 29.8025 19.5H28.9268C27.8082 19.5 26.7598 19.9962 26.0506 20.8613C25.3414 21.7264 25.0605 22.8517 25.2799 23.9486L25.4599 24.8489C24.42 26.0753 24.411 27.8829 25.4333 29.1192L25.3986 29.2231C24.8228 30.9506 25.6168 32.8674 27.2455 33.6818L28.5 34.309V36.5H19.5V34.1632C20.4062 32.3313 21.1081 30.3982 21.5932 28.4132C23.383 27.5941 24.5 26.3792 24.5 25C24.5 23.3363 22.9016 21.8747 20.2202 21.0792L19.4744 18.8419C19.4063 18.6377 19.2152 18.5 19 18.5H13.9792V19.5H18.6397L20.3739 24.7026C17.7049 25.6586 14.7732 25.7141 12.0658 24.8514L11.7622 25.8043C13.1386 26.2427 14.5685 26.4609 15.9973 26.4609C17.7635 26.4609 19.5278 26.1274 21.1857 25.4642C21.4315 25.3659 21.5581 25.093 21.4744 24.8419L20.6151 22.264C22.4134 22.934 23.5 23.9481 23.5 25C23.5 26.6902 20.4864 28.5 16 28.5C13.7917 28.5 11.7399 28.0428 10.2965 27.2383L13.4492 15.258L14.7678 13.9394C15.24 13.4672 15.5 12.8394 15.5 12.1716V10.2361C15.5 9.79458 15.3852 9.37446 15.1784 9.00751L17.0468 8.23552L21.4384 18.864C21.489 18.9866 21.5863 19.084 21.7087 19.1349C21.7701 19.1603 21.8353 19.1731 21.9005 19.1731C21.9654 19.1731 22.0303 19.1605 22.0914 19.1352L29.8335 15.9362L36.0066 19.435C36.0845 19.4791 36.1692 19.5001 36.2527 19.5001C36.4268 19.5001 36.5961 19.4089 36.6881 19.2465L42.3587 9.2418L44.7076 10.5731C44.705 10.7862 44.7294 11.0009 44.7828 11.2119L45.253 13.0712C45.465 13.9091 46.0821 14.5687 46.9037 14.8356C47.5685 15.0516 48.3631 15.3151 48.69 15.4238L55.0316 24.1436C55.9131 25.3555 56.1335 26.9198 55.6214 28.3281L53.0089 35.5126ZM52.4843 37.5C52.3237 39.326 50.9535 40.809 49.1082 41.0928L42.6595 42.085L43.4236 37.5H52.4843ZM50.7279 33.5H45.2722C44.0857 31.6506 43.2957 29.534 42.9851 27.3599L42.8154 26.1719C42.6277 24.8579 42.9656 23.5459 43.7671 22.4774L43.8041 22.4279C44.7097 21.2205 46.1515 20.4996 47.6608 20.4996H48.2645C49.8206 20.4995 51.3071 21.2427 52.2408 22.4877C53.0372 23.5496 53.3724 24.858 53.1847 26.1719L53.0149 27.36C52.7044 29.534 51.9143 31.6506 50.7279 33.5ZM45.5 34.5H50.5V36.5H45.5V34.5ZM34.5 36.7207C32.9548 37.6375 31.0452 37.6375 29.5 36.7207V34.8541C30.2927 35.2256 31.1464 35.4115 32 35.4115C32.8537 35.4115 33.7073 35.2256 34.5 34.8541V36.7207ZM34.7764 33.5528C34.7577 33.5621 34.7401 33.573 34.723 33.5844L34.7227 33.584C33.0688 34.6866 30.9313 34.6866 29.2774 33.584L29.2771 33.5844C29.26 33.573 29.2424 33.5621 29.2237 33.5528L27.6927 32.7874C26.5063 32.1942 25.9278 30.7977 26.3473 29.5393L26.4744 29.1581C26.5343 28.9785 26.4875 28.7804 26.3536 28.6464C25.4457 27.7386 25.4457 26.2614 26.3536 25.3536C26.4718 25.2354 26.5231 25.0659 26.4903 24.902L26.2605 23.7525C26.1001 22.9505 26.3054 22.1277 26.8239 21.4952C27.3425 20.8627 28.109 20.5 28.9268 20.5H30C30.1327 20.5 30.2598 20.4473 30.3536 20.3536C31.2614 19.4457 32.7386 19.4457 33.6465 20.3536C33.7403 20.4473 33.8674 20.5 34 20.5H34.8769C35.7201 20.5 36.5013 20.8812 37.0202 21.5458C37.5392 22.2104 37.7194 23.0607 37.515 23.8787C37.4808 24.0154 37.5059 24.1602 37.584 24.2773L38.0151 24.9239C38.7273 25.9922 38.4375 27.4407 37.3693 28.1529L36.7227 28.584C36.4929 28.7372 36.4308 29.0476 36.584 29.2773C37.0106 29.9173 37.1422 30.7107 36.9447 31.4541C36.7473 32.1976 36.2395 32.8212 35.5515 33.1652L34.7764 33.5528ZM10.035 28.2317C10.1546 28.2933 10.2768 28.3531 10.4026 28.4106C10.8901 30.3965 11.5934 32.3304 12.5 34.1632V36.4762C11.5475 36.3764 10.6648 35.9576 9.97818 35.271C9.10135 34.3942 8.75272 33.1046 9.06827 31.9054L10.035 28.2317ZM13.5 36.5V34.5H18.5V36.5H13.5ZM18.708 33.5H13.292C12.5707 32.008 11.9859 30.4497 11.5491 28.8509C12.8666 29.2714 14.4002 29.5 16 29.5C17.6417 29.5 19.1608 29.2654 20.4471 28.8549C20.0121 30.4523 19.4286 32.0093 18.708 33.5ZM11.5 37.5H20.5764L21.3405 42.0844L14.4678 41.0276C12.7482 40.7631 11.5 39.3082 11.5 37.5683V37.5ZM31.9189 3.32471L41.4887 8.74872L36.0647 18.3185L26.4949 12.8945L31.9189 3.32471ZM25.2109 10.2723L23.3984 9.05618C23.6257 8.83211 23.896 8.65153 24.1998 8.526C25.3067 8.0687 26.5727 8.47159 27.2253 9.43992L25.2109 10.2723ZM22.8422 9.88724L24.1001 10.7312L22.6994 11.31C22.6068 10.8355 22.6545 10.3444 22.8422 9.88724ZM24.482 11.6554L24.187 13.1398C23.7465 12.9548 23.3584 12.645 23.0815 12.2341L24.482 11.6554ZM25.5928 11.1964L26.5266 10.8106L25.3784 12.8364C25.313 12.9517 25.2961 13.0883 25.3315 13.2161C25.3423 13.2553 25.3591 13.2917 25.3787 13.3266C25.3082 13.3329 25.2379 13.3348 25.1677 13.3351L25.5928 11.1964ZM29.1687 6.14904L27.8062 8.55284C26.8433 7.4374 25.2362 7.01594 23.818 7.60181C22.9539 7.9588 22.2806 8.63092 21.9221 9.49432C21.5636 10.3577 21.5627 11.3091 21.9198 12.1731C22.4767 13.5211 23.7838 14.3365 25.1591 14.3365C25.6036 14.3365 26.0554 14.2513 26.4911 14.0713C26.5009 14.0672 26.5106 14.0625 26.5204 14.0583L28.7295 15.3104L22.1717 18.02L17.971 7.8537L25.3291 4.81337L28.1374 3.65303L29.1687 6.14904ZM4.06577 30.384L9.4744 14.1581C9.50858 14.0555 9.50858 13.9445 9.4744 13.8419L8.80576 11.8361C8.65012 11.3691 8.73349 10.8554 9.02878 10.4617L10.3986 8.63531C10.8338 8.05499 11.6208 7.86938 12.2693 8.19366L13.6708 8.89441C14.1823 9.15015 14.5 9.66425 14.5 10.2361V12.1716C14.5 12.5723 14.344 12.9489 14.0606 13.2322L12.6465 14.6464C12.5839 14.709 12.539 14.7872 12.5165 14.8727L8.10123 31.6509C7.98743 32.0833 7.94316 32.5247 7.95985 32.9611L3.73433 35.0739C3.4553 33.5243 3.55771 31.9081 4.06577 30.384ZM9.50003 57.5V45C9.50003 44.8974 9.46848 44.7973 9.40964 44.7133L5.29556 38.836C4.70062 37.9861 4.25694 37.0511 3.97015 36.074L8.12008 33.999C8.32463 34.7361 8.71473 35.4219 9.27103 35.9781C9.64233 36.3494 10.06 36.6573 10.5109 36.897C10.5039 36.9303 10.5 36.9647 10.5 37V37.5683C10.5 39.8054 12.1048 41.6758 14.3158 42.016L24.3998 43.5666L23.6017 47.454L20.0538 47.0701L19.9463 48.0642L23.5 48.4488V57.5H9.50003ZM26.6966 43.9197C26.7488 43.9277 26.8018 43.9275 26.8536 43.9189L32.081 43.0605C32.1843 43.0436 32.2796 42.9947 32.3536 42.9207L34.0197 41.2545C34.1835 41.0907 34.3863 40.9654 34.6061 40.8922L35.709 40.5245C36.3488 40.3111 37.0572 40.5543 37.4314 41.1155L37.6745 41.4802C38.0698 42.0731 37.9909 42.8691 37.4871 43.3729L36.2323 44.6277C35.9489 44.9111 35.5722 45.0671 35.1716 45.0671H34C33.9602 45.0671 33.9205 45.0719 33.8818 45.0813L24.6485 47.3276L25.3895 43.7187L26.6966 43.9197ZM24.5 55.5V48.393L34.06 46.0671H35.1716C35.8393 46.0671 36.4671 45.8071 36.9394 45.3349L38.1942 44.0801C39.034 43.2403 39.1653 41.9136 38.5066 40.9255L38.2634 40.5608C37.6397 39.6254 36.4593 39.2204 35.3927 39.5758L34.2898 39.9434C33.9236 40.0656 33.5856 40.2744 33.3126 40.5474L31.7602 42.0998L26.7701 42.9193L22.381 42.2444L21.5903 37.5H28.8539C29.8178 38.1071 30.9088 38.4115 32 38.4115C33.0913 38.4115 34.1822 38.1071 35.1462 37.5H42.4098L41.6189 42.245L39.924 42.5058C39.6801 42.5433 39.5 42.7532 39.5 43V55.5H24.5ZM54.5257 46.8419C54.5087 46.8929 54.5 46.9463 54.5 47V57.5H40.5V43.429L49.2603 42.0812C51.7169 41.7033 53.5 39.6249 53.5 37.1393V37C53.5 36.895 53.4674 36.7978 53.4121 36.7174C53.6438 36.4736 53.8294 36.1825 53.9487 35.8544L55.0079 32.9416L58.6707 34.4068L54.5257 46.8419ZM60.0543 30.2559L58.9874 33.4565L55.3498 32.0014L56.5612 28.6699C57.1872 26.9486 56.9177 25.0366 55.8404 23.5554L49.4044 14.7059C49.3431 14.6216 49.257 14.5586 49.1581 14.5256C49.1581 14.5256 48.0763 14.165 47.2127 13.8845C46.7198 13.7244 46.3497 13.3287 46.2225 12.8259L45.7523 10.9667C45.6226 10.4541 45.7755 9.9046 46.1514 9.53265L47.1253 8.56897C47.6496 8.05011 48.4901 7.99255 49.0804 8.43524L50.9001 9.80005C51.2757 10.0818 51.5 10.5304 51.5 11V13C51.5 13.1103 51.5365 13.2175 51.6037 13.3049L58.7669 22.6169C60.4417 24.7943 60.9229 27.65 60.0543 30.2559Z" fill="#365650" stroke="black" stroke-width="0.125"/>
<path d="M32.266 13.8665C32.8096 14.1746 33.4016 14.3209 33.9859 14.3209C35.2062 14.3209 36.3933 13.6827 37.0367 12.5474C37.9883 10.8684 37.3966 8.72827 35.7176 7.77667C34.9043 7.31573 33.9601 7.19903 33.0591 7.44812C32.158 7.69726 31.4078 8.28241 30.9468 9.09576C29.9952 10.7748 30.587 12.9149 32.266 13.8665ZM31.6142 10.0487L33.5124 11.1246L33.6701 13.2994C33.3583 13.2593 33.049 13.1608 32.759 12.9965C31.7087 12.4012 31.2543 11.1548 31.6142 10.0487ZM36.3695 11.5945L35.0511 10.8473L36.4025 10.1656C36.528 10.6266 36.5228 11.1232 36.3695 11.5945ZM34.6675 13.2268L34.558 11.7172L35.8764 12.4644C35.5508 12.8381 35.1274 13.0976 34.6675 13.2268ZM33.996 8.32202C34.4134 8.32202 34.8362 8.42657 35.2245 8.64667C35.5144 8.811 35.7579 9.02574 35.9525 9.27267L34.0056 10.2547L32.1074 9.17879C32.589 8.62605 33.2844 8.32202 33.996 8.32202Z" fill="#365650" stroke="black" stroke-width="0.125"/>
</svg>
