<svg width="36" height="36" viewBox="0 0 36 36" fill="none" xmlns="http://www.w3.org/2000/svg">
<path fill-rule="evenodd" clip-rule="evenodd" d="M1.5 18C1.5 8.88731 8.88731 1.5 18 1.5C27.1126 1.5 34.5 8.88731 34.5 18C34.5 27.1126 27.1126 34.5 18 34.5C8.88731 34.5 1.5 27.1126 1.5 18ZM15.375 16.5C15.375 15.6715 16.0465 15 16.875 15H19.125C19.9534 15 20.625 15.6715 20.625 16.5V27C20.625 27.8284 19.9534 28.5 19.125 28.5H16.875C16.0465 28.5 15.375 27.8284 15.375 27V16.5ZM21 10.5C21 8.84314 19.6569 7.5 18 7.5C16.3431 7.5 15 8.84314 15 10.5C15 12.1569 16.3431 13.5 18 13.5C19.6569 13.5 21 12.1569 21 10.5Z" fill="#0F4C75"/>
</svg>
