<svg width="30" height="30" viewBox="0 0 30 30" fill="none" xmlns="http://www.w3.org/2000/svg">
<path d="M14.9985 6.82744e-06C14.4287 6.82744e-06 13.8593 0.210818 13.395 0.633886L0.492882 12.3899C0.0145567 12.8256 -0.155702 13.5854 0.16193 14.1704C0.566474 14.9149 1.4617 15.0604 2.04382 14.5299L2.49323 14.1211V26.5909C2.49323 28.4734 3.89319 30 5.61954 30H24.3774C26.1037 30 27.5037 28.4734 27.5037 26.5909V14.1224L27.9531 14.5313C28.1869 14.7447 28.4704 14.8482 28.753 14.8482C29.1875 14.8482 29.6187 14.6023 29.857 14.1291C30.1477 13.5509 29.9765 12.8206 29.5126 12.3979L27.5037 10.5668V4.77273C27.5037 4.01932 26.9441 3.40909 26.2532 3.40909H25.0026C24.3117 3.40909 23.7521 4.01932 23.7521 4.77273V7.14844L16.6019 0.633879C16.1377 0.210811 15.5682 6.82744e-06 14.9985 6.82744e-06ZM14.9985 2.83115C15.0702 2.83115 15.1415 2.85787 15.2 2.91105L25.0026 11.8426V25.9091C25.0026 26.6625 24.443 27.2727 23.7521 27.2727H18.75V17.7273C18.75 16.9739 18.1904 16.3636 17.4995 16.3636H12.4974C11.8065 16.3636 11.2469 16.9739 11.2469 17.7273V27.2727H6.2448C5.55388 27.2727 4.99427 26.6625 4.99427 25.9091V11.8413L14.797 2.91105C14.8554 2.85787 14.9267 2.83115 14.9985 2.83115Z" fill="#3282B8"/>
</svg>
