<svg width="36" height="36" viewBox="0 0 40 36" fill="none" xmlns="http://www.w3.org/2000/svg">
<path fill-rule="evenodd" clip-rule="evenodd" d="M20 0C8.9543 0 0 8.05887 0 18C0 27.941 8.9543 36 20 36C31.0456 36 40 27.941 40 18C40 8.05887 31.0456 0 20 0ZM13 11.7C13 8.2206 16.134 5.4 20 5.4C23.866 5.4 27 8.2206 27 11.7C27 15.1794 23.866 18 20 18C16.134 18 13 15.1794 13 11.7ZM6.5564 25.8113C9.85386 23.3852 14.6694 21.6 20 21.6C25.3306 21.6 30.1462 23.3852 33.4436 25.8113C30.5938 29.7761 25.6374 32.4 20 32.4C14.3627 32.4 9.40636 29.7761 6.5564 25.8113Z" fill="#BBE1FA"/>
</svg>