<svg width="36" height="36" viewBox="0 0 44 40" fill="none" xmlns="http://www.w3.org/2000/svg">
<path d="M2 6.875C2 4.18262 4.64558 2 7.9091 2H32.4546C35.718 2 38.3637 4.18261 38.3637 6.875V25.0681C38.1448 25.1888 37.937 25.3291 37.7437 25.4885L35.6364 27.227V6.875C35.6364 5.42525 34.2119 4.25 32.4546 4.25H7.9091C6.15182 4.25 4.72728 5.42525 4.72728 6.875V33.1245C4.72728 34.5743 6.15182 35.7495 7.9091 35.7495H22.5777L25.3049 37.9995H7.9091C4.64558 37.9995 2 35.8169 2 33.1245V6.875Z" fill="#BBE1FA" stroke="#BBE1FA" stroke-width="2.28571"/>
<path d="M13.8182 12.125C13.8182 13.1605 12.8007 14 11.5455 14C10.2903 14 9.27273 13.1605 9.27273 12.125C9.27273 11.0895 10.2903 10.25 11.5455 10.25C12.8007 10.25 13.8182 11.0895 13.8182 12.125Z" fill="#BBE1FA" stroke="#BBE1FA" stroke-width="2.28571"/>
<path d="M11.5455 21.8747C12.8007 21.8747 13.8182 21.0353 13.8182 19.9997C13.8182 18.9642 12.8007 18.1247 11.5455 18.1247C10.2903 18.1247 9.27273 18.9642 9.27273 19.9997C9.27273 21.0353 10.2903 21.8747 11.5455 21.8747Z" fill="#BBE1FA" stroke="#BBE1FA" stroke-width="2.28571"/>
<path d="M11.5455 29.75C12.8007 29.75 13.8182 28.9106 13.8182 27.875C13.8182 26.8394 12.8007 26 11.5455 26C10.2903 26 9.27273 26.8394 9.27273 27.875C9.27273 28.9106 10.2903 29.75 11.5455 29.75Z" fill="#BBE1FA" stroke="#BBE1FA" stroke-width="2.28571"/>
<path d="M17.9091 11C17.156 11 16.5455 11.5037 16.5455 12.125C16.5455 12.7463 17.156 13.25 17.9091 13.25H29.7273C30.4804 13.25 31.0909 12.7463 31.0909 12.125C31.0909 11.5037 30.4804 11 29.7273 11H17.9091Z" fill="#BBE1FA" stroke="#BBE1FA" stroke-width="2.28571"/>
<path d="M16.5455 19.9998C16.5455 19.3785 17.156 18.8748 17.9091 18.8748H29.7273C30.4804 18.8748 31.0909 19.3785 31.0909 19.9998C31.0909 20.6211 30.4804 21.1248 29.7273 21.1248H17.9091C17.156 21.1248 16.5455 20.6211 16.5455 19.9998Z" fill="#BBE1FA" stroke="#BBE1FA" stroke-width="2.28571"/>
<path d="M17.9091 26.75C17.156 26.75 16.5455 27.2537 16.5455 27.875C16.5455 28.4963 17.156 29 17.9091 29H29.7273C30.4804 29 31.0909 28.4963 31.0909 27.875C31.0909 27.2537 30.4804 26.75 29.7273 26.75H17.9091Z" fill="#BBE1FA" stroke="#BBE1FA" stroke-width="2.28571"/>
<path d="M41.6006 28.6704L30.6915 37.6704C30.4359 37.8815 30.0889 38 29.7273 38C29.3657 38 29.0188 37.8815 28.7631 37.6704L23.312 33.1734C22.7795 32.7341 22.7795 32.0217 23.312 31.5824C23.8446 31.143 24.708 31.143 25.2406 31.5824L29.7273 35.2839L39.6722 27.0795C40.2048 26.6402 41.068 26.6402 41.6006 27.0795C42.1331 27.5189 42.1331 28.2311 41.6006 28.6704Z" fill="#BBE1FA" stroke="#BBE1FA" stroke-width="2.28571"/>
</svg>