<svg width="36" height="36" viewBox="0 0 40 36" fill="none" xmlns="http://www.w3.org/2000/svg">
<path d="M19.9979 8.19293e-06C19.2382 8.19293e-06 18.479 0.252982 17.86 0.760664L0.657175 14.8679C0.0194089 15.3907 -0.207603 16.3025 0.215907 17.0044C0.755299 17.8979 1.94894 18.0725 2.7251 17.4359L3.32431 16.9453V31.9091C3.32431 34.1681 5.19092 36 7.49271 36H32.5032C34.805 36 36.6716 34.1681 36.6716 31.9091V16.9469L37.2708 17.4375C37.5826 17.6936 37.9605 17.8178 38.3373 17.8178C38.9167 17.8178 39.4916 17.5227 39.8093 16.9549C40.1969 16.2611 39.9687 15.3848 39.3501 14.8775L36.6716 12.6802V5.72727C36.6716 4.82318 35.9254 4.09091 35.0042 4.09091H33.3369C32.4156 4.09091 31.6695 4.82318 31.6695 5.72727V8.57813L22.1359 0.760655C21.5169 0.252973 20.7576 8.19293e-06 19.9979 8.19293e-06ZM19.9979 3.39738C20.0936 3.39738 20.1887 3.42944 20.2666 3.49326L33.3368 14.2111V31.0909C33.3368 31.995 32.5907 32.7273 31.6695 32.7273H25V21.2727C25 20.3686 24.2539 19.6364 23.3327 19.6364H16.6632C15.742 19.6364 14.9958 20.3686 14.9958 21.2727V32.7273H8.3264C7.40518 32.7273 6.65903 31.995 6.65903 31.0909V14.2095L19.7293 3.49326C19.8072 3.42944 19.9023 3.39738 19.9979 3.39738Z" fill="#BBE1FA"/>
</svg>