<svg width="36" height="36" viewBox="0 0 40 36" fill="none" xmlns="http://www.w3.org/2000/svg">
<path d="M39.3678 29.8882L27.5947 20.735C26.837 20.0545 25.7907 19.7883 24.8051 19.9311C28.9137 15.0623 28.5111 8.0753 23.577 3.63505C18.1897 -1.21168 9.42408 -1.21168 4.03827 3.63505C-1.34609 8.48179 -1.34609 16.3714 4.03827 21.2181C8.97382 25.6597 16.7379 26.0194 22.1468 22.3246C21.991 23.2116 22.2839 24.148 23.0401 24.835L33.2114 35.4324C34.4669 36.5635 37.3085 35.8376 38.564 34.709C39.8239 33.5752 40.6248 31.0194 39.3678 29.8882ZM20.3674 18.3272C16.7509 21.5805 10.8687 21.5805 7.25215 18.3272C3.63419 15.074 3.63563 9.77789 7.25215 6.52595C10.8658 3.27272 16.7509 3.27142 20.3645 6.52595C23.981 9.77919 23.981 15.0753 20.3674 18.3272Z" fill="#BBE1FA" stroke="#BBE1FA" stroke-width="0.000533397"/>
<path d="M8.20174 12.1298C8.19452 11.5649 7.6822 11.1142 7.05299 11.1207C6.42234 11.1272 5.9259 11.5883 5.93167 12.1532C5.96054 14.3025 6.90146 16.3246 8.59283 17.8467C9.03876 18.2454 9.75889 18.2454 10.199 17.8467C10.645 17.448 10.645 16.8012 10.199 16.4012C8.92908 15.2584 8.22194 13.7415 8.20174 12.1298Z" fill="#BBE1FA" stroke="#BBE1FA" stroke-width="0.000533397"/>
</svg>