<svg width="36" height="36" viewBox="0 0 40 36" fill="none" xmlns="http://www.w3.org/2000/svg">
<path d="M39.2517 11.8957C38.6074 11.0084 37.648 10.5 36.6194 10.5H36.5889C36.5889 8.84542 35.3733 7.49999 33.8786 7.49999H32.4787C32.1637 5.79078 30.795 4.50001 29.1593 4.50001H21.3456L18.161 0.270001C18.0323 0.098965 17.8418 0 17.6406 0H5.44426C3.9495 0 2.734 1.34552 2.734 2.99998V7.49999H2.71026C1.21622 7.4999 0 8.84542 0 10.5V33C0 34.6546 1.21622 36 2.71026 36H33.8785C35.3733 36 36.5888 34.6545 36.5888 33V32.3295L39.9211 15.0412C40.1407 13.9282 39.8968 12.7822 39.2517 11.8957ZM12.8976 16.4999H4.76672C4.39273 16.4999 4.08917 16.1647 4.08917 15.75C4.08917 15.3352 4.39273 15 4.76672 15H12.8976C13.2716 15 13.5751 15.3352 13.5751 15.75C13.5751 16.1647 13.2716 16.4999 12.8976 16.4999ZM12.8976 13.4999H4.76672C4.39273 13.4999 4.08917 13.1647 4.08917 12.75C4.08917 12.3352 4.39273 12 4.76672 12H12.8976C13.2716 12 13.5751 12.3352 13.5751 12.75C13.5751 13.1647 13.2716 13.4999 12.8976 13.4999ZM4.08917 7.4999V2.99989C4.08917 2.17336 4.69692 1.49986 5.44434 1.49986H17.3235L20.5081 5.73066C20.6368 5.9009 20.8272 5.99987 21.0285 5.99987H29.1594C30.0423 5.99987 30.7964 6.62688 31.0755 7.4999H4.08917ZM38.5965 14.7239L36.5889 25.1407V11.9999H36.6194C37.2353 11.9999 37.8099 12.3045 38.1968 12.8354C38.583 13.3672 38.7286 14.0535 38.5965 14.7239Z" fill="#BBE1FA" stroke="#BBE1FA" stroke-width="0.00064"/>
</svg>