<svg width="36" height="36" viewBox="0 0 42 38" fill="none" xmlns="http://www.w3.org/2000/svg">
<path d="M38.6121 21.9483C37.2492 20.701 35.448 19.9414 33.5361 19.7809C35.1866 18.434 36.2279 16.4895 36.2279 14.3174C36.2279 10.2537 32.5976 6.96069 28.1167 6.96069C23.8372 6.96069 20.3333 9.96754 20.0291 13.7783C23.8363 15.2722 26.5081 18.7138 26.5081 22.7095C26.5081 24.1687 26.1421 25.5946 25.4615 26.8886C26.4419 27.3534 27.3455 27.9541 28.1333 28.675C30.1532 30.5199 31.3009 33.0707 31.2791 35.6712L31.2774 35.7242L31.2756 35.7692L31.2042 37H40.9196L40.9998 27.2538C41.0163 25.2658 40.158 23.3593 38.6121 21.9483Z" fill="#BBE1FA" stroke="#BBE1FA" stroke-width="1.39427"/>
<path d="M21.2029 28.1746C22.8525 26.8285 23.8973 24.8832 23.8973 22.7111C23.8973 18.6466 20.2653 15.3528 15.7853 15.3528C11.3045 15.3528 7.6733 18.6466 7.6733 22.7111C7.6733 24.8793 8.71377 26.823 10.3607 28.1699C6.14309 28.4663 2.81167 31.6344 2.78117 35.5353L2.701 37H15.0342H28.5873L28.6675 35.6451C28.6832 33.658 27.8239 31.7514 26.2789 30.3405C24.9143 29.0923 23.1139 28.3351 21.2029 28.1746Z" fill="#BBE1FA" stroke="#BBE1FA" stroke-width="1.39427"/>
<path d="M6.23199 9.84902V12.5824C6.23199 13.7143 7.24631 14.6336 8.49505 14.6336C9.74554 14.6336 10.7581 13.7143 10.7581 12.5824V9.84902H13.768C15.0167 9.84902 16.0302 8.92895 16.0302 7.79624C16.0302 6.66433 15.0167 5.74425 13.768 5.74425H10.7581V3.0512C10.7581 1.9185 9.74554 1 8.49505 1C7.24631 1 6.23199 1.9185 6.23199 3.0512V5.74346H3.2622C2.01171 5.74346 1 6.66353 1 7.79545C1 8.92816 2.01171 9.84824 3.2622 9.84824L6.23199 9.84902Z" fill="#BBE1FA" stroke="#BBE1FA" stroke-width="1.39427"/>
</svg>