<svg width="64" height="64" viewBox="0 0 64 64" fill="none" xmlns="http://www.w3.org/2000/svg">
<path d="M46 4H18C14.6863 4 12 6.6863 12 10V54C12 57.3138 14.6863 60 18 60H46C49.3138 60 52 57.3138 52 54V10C52 6.6863 49.3138 4 46 4Z" fill="#D7A7A7"/>
<path d="M42 51.9998C41.7368 52.0014 41.4758 51.951 41.2322 51.8514C40.9886 51.7518 40.7668 51.6052 40.58 51.4198L34.58 45.4198C34.2034 45.0432 33.9918 44.5324 33.9918 43.9998C33.9918 43.4672 34.2034 42.9564 34.58 42.5798C34.9566 42.2032 35.4674 41.9916 36 41.9916C36.5326 41.9916 37.0434 42.2032 37.42 42.5798L43.42 48.5798C43.6074 48.7658 43.7562 48.987 43.8578 49.2308C43.9594 49.4744 44.0116 49.7358 44.0116 49.9998C44.0116 50.264 43.9594 50.5254 43.8578 50.769C43.7562 51.0128 43.6074 51.234 43.42 51.4198C43.2332 51.6052 43.0114 51.7518 42.7678 51.8514C42.5242 51.951 42.2632 52.0014 42 51.9998Z" fill="#E53935"/>
<path d="M36 51.9998C35.7368 52.0014 35.4758 51.951 35.2322 51.8514C34.9886 51.7518 34.7668 51.6052 34.58 51.4198C34.3926 51.234 34.2438 51.0128 34.1422 50.769C34.0406 50.5254 33.9884 50.264 33.9884 49.9998C33.9884 49.7358 34.0406 49.4744 34.1422 49.2308C34.2438 48.987 34.3926 48.7658 34.58 48.5798L40.58 42.5798C40.9566 42.2032 41.4674 41.9916 42 41.9916C42.5326 41.9916 43.0434 42.2032 43.42 42.5798C43.7966 42.9564 44.0082 43.4672 44.0082 43.9998C44.0082 44.5324 43.7966 45.0432 43.42 45.4198L37.42 51.4198C37.2332 51.6052 37.0114 51.7518 36.7678 51.8514C36.5242 51.951 36.2632 52.0014 36 51.9998Z" fill="#E53935"/>
<path d="M24 52H23.88C23.5314 51.9776 23.1946 51.8642 22.9034 51.6712C22.6122 51.4782 22.3766 51.2124 22.22 50.9L20.22 46.9C20.0258 46.4338 20.0152 45.9114 20.1904 45.4378C20.3654 44.964 20.7132 44.5742 21.1638 44.3462C21.6146 44.1184 22.1348 44.0694 22.62 44.2092C23.1052 44.349 23.5196 44.6672 23.78 45.1L24.24 46.02L26.34 42.9C26.6526 42.5118 27.0988 42.2544 27.5912 42.1782C28.0838 42.1018 28.587 42.212 29.0024 42.4874C29.4178 42.7626 29.7154 43.183 29.837 43.6664C29.9586 44.1496 29.8956 44.6608 29.66 45.1L25.66 51.1C25.4788 51.375 25.2324 51.6012 24.943 51.7582C24.6534 51.9152 24.3294 51.9982 24 52Z" fill="#689F38"/>
<path d="M52 34H12V38H52V34Z" fill="#304046"/>
<path d="M28 22H22C21.4696 22 20.9608 21.7892 20.5858 21.4142C20.2108 21.0392 20 20.5304 20 20V14C20 13.4696 20.2108 12.9609 20.5858 12.5858C20.9608 12.2107 21.4696 12 22 12H28C28.5304 12 29.0392 12.2107 29.4142 12.5858C29.7892 12.9609 30 13.4696 30 14V20C30 20.5304 29.7892 21.0392 29.4142 21.4142C29.0392 21.7892 28.5304 22 28 22ZM24 18H26V16H24V18Z" fill="#1565C0"/>
<path d="M42 30H22C21.4696 30 20.9608 29.7892 20.5858 29.4142C20.2108 29.0392 20 28.5304 20 28C20 27.4696 20.2108 26.9608 20.5858 26.5858C20.9608 26.2108 21.4696 26 22 26H42C42.5304 26 43.0392 26.2108 43.4142 26.5858C43.7892 26.9608 44 27.4696 44 28C44 28.5304 43.7892 29.0392 43.4142 29.4142C43.0392 29.7892 42.5304 30 42 30Z" fill="#304046"/>
<path d="M42 16H36C35.4696 16 34.9608 15.7893 34.5858 15.4142C34.2108 15.0391 34 14.5304 34 14C34 13.4696 34.2108 12.9609 34.5858 12.5858C34.9608 12.2107 35.4696 12 36 12H42C42.5304 12 43.0392 12.2107 43.4142 12.5858C43.7892 12.9609 44 13.4696 44 14C44 14.5304 43.7892 15.0391 43.4142 15.4142C43.0392 15.7893 42.5304 16 42 16Z" fill="#304046"/>
<path d="M42 22H36C35.4696 22 34.9608 21.7892 34.5858 21.4142C34.2108 21.0392 34 20.5304 34 20C34 19.4696 34.2108 18.9609 34.5858 18.5858C34.9608 18.2107 35.4696 18 36 18H42C42.5304 18 43.0392 18.2107 43.4142 18.5858C43.7892 18.9609 44 19.4696 44 20C44 20.5304 43.7892 21.0392 43.4142 21.4142C43.0392 21.7892 42.5304 22 42 22Z" fill="#304046"/>
<path d="M18 4C16.4087 4 14.8826 4.63214 13.7574 5.75736C12.6321 6.88258 12 8.4087 12 10V54C12 55.5912 12.6321 57.1174 13.7574 58.2426C14.8826 59.3678 16.4087 60 18 60H32V4H18Z" fill="#82D3B8"/>
<path d="M26.34 42.9L24.24 46L23.78 45.08C23.5196 44.6472 23.1052 44.329 22.62 44.1892C22.1348 44.0494 21.6146 44.0984 21.1638 44.3262C20.7132 44.5542 20.3654 44.944 20.1904 45.4176C20.0152 45.8914 20.0258 46.4138 20.22 46.88L22.22 50.88C22.3766 51.1922 22.6122 51.4582 22.9034 51.6512C23.1946 51.8442 23.5314 51.9576 23.88 51.98H24C24.3294 51.9782 24.6534 51.8952 24.943 51.7382C25.2324 51.5812 25.4788 51.355 25.66 51.08L29.66 45.08C29.8956 44.6408 29.9586 44.1296 29.837 43.6462C29.7154 43.163 29.4178 42.7426 29.0024 42.4674C28.587 42.192 28.0838 42.0818 27.5912 42.1582C27.0988 42.2344 26.6526 42.4918 26.34 42.88V42.9Z" fill="#689F38"/>
<path d="M32 34H12V38H32V34Z" fill="#616161"/>
<path d="M28 22H22C21.4696 22 20.9608 21.7892 20.5858 21.4142C20.2108 21.0392 20 20.5304 20 20V14C20 13.4696 20.2108 12.9609 20.5858 12.5858C20.9608 12.2107 21.4696 12 22 12H28C28.5304 12 29.0392 12.2107 29.4142 12.5858C29.7892 12.9609 30 13.4696 30 14V20C30 20.5304 29.7892 21.0392 29.4142 21.4142C29.0392 21.7892 28.5304 22 28 22ZM24 18H26V16H24V18Z" fill="#1565C0"/>
<path d="M22 26C21.4696 26 20.9608 26.2108 20.5858 26.5858C20.2108 26.9608 20 27.4696 20 28C20 28.5304 20.2108 29.0392 20.5858 29.4142C20.9608 29.7892 21.4696 30 22 30H32V26H22Z" fill="#616161"/>
</svg>
