<svg width="38" height="31" viewBox="0 0 38 31" fill="none" xmlns="http://www.w3.org/2000/svg">
<g clip-path="url(#clip0_211_29)">
<path d="M21.0069 3.27548L19.6056 0.381335C19.3741 -0.121204 18.6497 -0.139368 18.3944 0.381335L16.9931 3.27548L13.8878 3.72958C13.3356 3.81434 13.0981 4.51063 13.5078 4.92841L15.7641 7.16864L15.2297 10.3231C15.1466 10.8862 15.7166 11.3222 16.2272 11.0618L19.0119 9.56024L21.7787 11.0376C22.2894 11.2979 22.8653 10.862 22.7763 10.2989L22.2419 7.14442L24.4981 4.92841C24.9019 4.51669 24.6703 3.8204 24.1181 3.72958L21.0128 3.27548H21.0069ZM15.2 15.4999C14.1491 15.4999 13.3 16.3657 13.3 17.4374V29.0624C13.3 30.1341 14.1491 30.9999 15.2 30.9999H22.8C23.8509 30.9999 24.7 30.1341 24.7 29.0624V17.4374C24.7 16.3657 23.8509 15.4999 22.8 15.4999H15.2ZM1.9 19.3749C0.849062 19.3749 0 20.2407 0 21.3124V29.0624C0 30.1341 0.849062 30.9999 1.9 30.9999H9.5C10.5509 30.9999 11.4 30.1341 11.4 29.0624V21.3124C11.4 20.2407 10.5509 19.3749 9.5 19.3749H1.9ZM26.6 25.1874V29.0624C26.6 30.1341 27.4491 30.9999 28.5 30.9999H36.1C37.1509 30.9999 38 30.1341 38 29.0624V25.1874C38 24.1157 37.1509 23.2499 36.1 23.2499H28.5C27.4491 23.2499 26.6 24.1157 26.6 25.1874Z" fill="#BBE1FA"/>
</g>
<defs>
<clipPath id="clip0_211_29">
<rect width="38" height="31" fill="white"/>
</clipPath>
</defs>
</svg>
