<svg width="25" height="25" viewBox="0 0 25 25" fill="none" xmlns="http://www.w3.org/2000/svg">
<g clip-path="url(#clip0_437_641)">
<path d="M17.4635 2.08333C18.6999 2.08333 18.8833 2.14583 19.0364 2.25833L22.5645 4.89583C22.6742 4.97782 22.7632 5.08425 22.8245 5.20667C22.8858 5.3291 22.9177 5.46413 22.9176 5.60104V22.0385C22.9176 22.154 22.8949 22.2683 22.8507 22.375C22.8065 22.4816 22.7418 22.5786 22.6601 22.6602C22.5785 22.7418 22.4816 22.8066 22.3749 22.8508C22.2682 22.895 22.1539 22.9177 22.0385 22.9177H2.96242C2.84688 22.9177 2.73247 22.8949 2.62574 22.8507C2.519 22.8064 2.42204 22.7416 2.34039 22.6598C2.25873 22.5781 2.194 22.481 2.14988 22.3743C2.10575 22.2675 2.08312 22.153 2.08325 22.0375V2.9625C2.08325 2.72933 2.17588 2.50571 2.34075 2.34084C2.50563 2.17596 2.72925 2.08333 2.96242 2.08333H17.4635ZM17.7083 21.875V14.5833H7.29159V21.875H17.7083ZM14.5833 3.125V6.25H15.6249V3.125H14.5833ZM7.29159 3.125V9.375H17.7083V3.125H16.6666V7.29167H13.5416V3.125H7.29159ZM3.12492 21.875H6.24992V13.5417H18.7499V21.875H21.8749V5.67917L18.7499 3.30625V9.73333C18.7206 9.93901 18.6125 10.1252 18.4485 10.2527C18.2844 10.3802 18.0773 10.439 17.8708 10.4167H7.12909C6.92254 10.439 6.71539 10.3802 6.55136 10.2527C6.38733 10.1252 6.27924 9.93901 6.24992 9.73333V3.125H3.12492V21.875Z" fill="#3282B8"/>
</g>
<defs>
<clipPath id="clip0_437_641">
<rect width="25" height="25" fill="white"/>
</clipPath>
</defs>
</svg>
