<svg width="24" height="24" viewBox="0 0 24 24" fill="none" xmlns="http://www.w3.org/2000/svg">
<path d="M23.6207 19.9255L16.5568 13.8233C16.1022 13.3697 15.4744 13.1922 14.883 13.2874C17.3482 10.0415 17.1066 5.38353 14.1462 2.42337C10.9138 -0.80779 5.65445 -0.80779 2.42296 2.42337C-0.807654 5.65453 -0.807654 10.9143 2.42296 14.1454C5.38429 17.1064 10.0428 17.3463 13.2881 14.8831C13.1946 15.4744 13.3703 16.0987 13.8241 16.5567L19.9268 23.6216C20.6802 24.3757 22.3851 23.8917 23.1384 23.1393C23.8943 22.3835 24.3749 20.6796 23.6207 19.9255ZM12.2205 12.2181C10.0505 14.387 6.5212 14.387 4.35129 12.2181C2.18052 10.0493 2.18138 6.5186 4.35129 4.35064C6.51946 2.18181 10.0505 2.18095 12.2187 4.35064C14.3886 6.51946 14.3886 10.0502 12.2205 12.2181Z" fill="white" stroke="#BBE1FA" stroke-width="0.000533397"/>
<path d="M4.92103 8.08656C4.9167 7.70994 4.60931 7.40951 4.23178 7.41383C3.85339 7.41816 3.55553 7.72552 3.55899 8.10214C3.57631 9.53504 4.14086 10.8831 5.15568 11.8978C5.42324 12.1636 5.85532 12.1636 6.11941 11.8978C6.38697 11.632 6.38697 11.2008 6.11941 10.9342C5.35743 10.1723 4.93315 9.16102 4.92103 8.08656Z" fill="white" stroke="#BBE1FA" stroke-width="0.000533397"/>
</svg>
