<svg width="30" height="30" viewBox="0 0 30 30" fill="none" xmlns="http://www.w3.org/2000/svg">
<path d="M29.5259 24.9069L20.696 17.2792C20.1278 16.7121 19.3431 16.4902 18.6038 16.6093C21.6853 12.5519 21.3833 6.72942 17.6827 3.02921C13.6423 -1.00974 7.06806 -1.00974 3.0287 3.02921C-1.00957 7.06816 -1.00957 13.6428 3.0287 17.6818C6.73036 21.3831 12.5534 21.6828 16.6101 18.6038C16.4932 19.343 16.7129 20.1233 17.2801 20.6958L24.9085 29.527C25.8502 30.4696 27.9813 29.8646 28.923 28.9242C29.8679 27.9794 30.4686 25.8495 29.5259 24.9069ZM15.2756 15.2727C12.5632 17.9837 8.1515 17.9837 5.43911 15.2727C2.72564 12.5617 2.72673 8.14824 5.43911 5.4383C8.14933 2.72726 12.5632 2.72618 15.2734 5.4383C17.9858 8.14933 17.9858 12.5627 15.2756 15.2727Z" fill="#0F4C75" stroke="#BBE1FA" stroke-width="0.000533397"/>
<path d="M6.15131 10.1082C6.1459 9.6374 5.76167 9.26186 5.28976 9.26727C4.81677 9.27268 4.44444 9.65688 4.44877 10.1277C4.47041 11.9188 5.17611 13.6038 6.44463 14.8722C6.77908 15.2045 7.31918 15.2045 7.6493 14.8722C7.98374 14.54 7.98374 14.001 7.6493 13.6677C6.69682 12.7153 6.16647 11.4512 6.15131 10.1082Z" fill="#0F4C75" stroke="#BBE1FA" stroke-width="0.000533397"/>
</svg>
