<svg width="64" height="64" viewBox="0 0 64 64" fill="none" xmlns="http://www.w3.org/2000/svg">
<path d="M32 60C47.464 60 60 47.464 60 32C60 16.536 47.464 4 32 4C16.536 4 4 16.536 4 32C4 47.464 16.536 60 32 60Z" fill="url(#paint0_linear_361_749)"/>
<path d="M45.9732 20.4176C46.2224 18.8066 44.6908 17.5351 43.2584 18.164L14.7296 30.6896C13.7025 31.1406 13.7776 32.6966 14.8429 33.0358L20.7262 34.9094C21.8492 35.267 23.065 35.082 24.0456 34.4046L37.31 25.2406C37.71 24.9642 38.146 25.533 37.8042 25.8852L28.2562 35.7292C27.33 36.6842 27.5138 38.3024 28.628 39.001L39.318 45.7046C40.517 46.4564 42.0594 45.7012 42.2836 44.2522L45.9732 20.4176Z" fill="white"/>
<defs>
<linearGradient id="paint0_linear_361_749" x1="32" y1="4" x2="32" y2="60" gradientUnits="userSpaceOnUse">
<stop stop-color="#37BBFE"/>
<stop offset="1" stop-color="#007DBB"/>
</linearGradient>
</defs>
</svg>
