<svg width="85" height="84" viewBox="0 0 85 84" fill="none" xmlns="http://www.w3.org/2000/svg">
<path d="M48.4209 52.0852C49.0119 52.5253 49.8382 51.9467 49.6268 51.2408L45.9616 39.0037C45.8671 38.688 45.989 38.344 46.2636 38.1517L56.9108 30.6964C57.525 30.2664 57.2405 29.3166 56.4957 29.3104L43.5833 29.2027C43.2502 29.2 42.9607 28.9844 42.8661 28.6686L39.2009 16.4316C38.9895 15.7257 37.9873 15.7173 37.7385 16.4193L33.4233 28.59C33.312 28.9039 33.0111 29.1146 32.678 29.1118L19.7655 29.0042C19.0206 28.9979 18.6858 29.9425 19.2768 30.3827L27.8291 36.7512C27.9996 36.8782 28.2171 36.9275 28.4289 36.8872L39.285 34.8224L39.838 34.7024C40.7381 34.5072 41.1405 35.7552 40.302 36.1411L40.2312 36.1737L29.5888 40.2335C29.3736 40.3156 29.2047 40.4881 29.1282 40.704L25.4638 51.0392C25.2149 51.7412 26.0101 52.3334 26.6242 51.9034L37.2714 44.4481C37.5461 44.2558 37.911 44.2589 38.1753 44.4557L48.4209 52.0852Z" fill="url(#paint0_linear_301_254)"/>
<defs>
<linearGradient id="paint0_linear_301_254" x1="48.6742" y1="51.1104" x2="29.4667" y2="23.6792" gradientUnits="userSpaceOnUse">
<stop stop-color="#7690F7"/>
<stop offset="0.511057" stop-color="#A869E4"/>
<stop offset="1" stop-color="#BE65B5"/>
</linearGradient>
</defs>
</svg>
