<svg width="64" height="64" viewBox="0 0 64 64" fill="none" xmlns="http://www.w3.org/2000/svg">
<path fill-rule="evenodd" clip-rule="evenodd" d="M50.65 49.78V41.19L31.32 37.7L13.35 41.19V49.78L30.44 53.38L50.65 49.78Z" fill="#8FD7F8"/>
<path d="M11.24 49.78H52.75C53.7 49.78 54.48 50.56 54.48 51.51V55.08C54.48 56.03 53.7 56.81 52.75 56.81H11.24C10.29 56.81 9.51 56.04 9.51 55.08V51.51C9.51 50.56 10.28 49.78 11.24 49.78Z" fill="#D9F0F3"/>
<path fill-rule="evenodd" clip-rule="evenodd" d="M44.87 54.62V47.14L31.24 45.39L19.13 47.14V54.62L32.81 56.21L44.87 54.62Z" fill="#82D3B8"/>
<path fill-rule="evenodd" clip-rule="evenodd" d="M49.19 49.78C50.15 49.78 50.92 50.55 50.92 51.51V55.08C50.92 56.04 50.15 56.81 49.19 56.81H52.76C53.72 56.81 54.49 56.04 54.49 55.08V51.51C54.49 50.55 53.72 49.78 52.76 49.78H49.19Z" fill="#B8E3EE"/>
<path fill-rule="evenodd" clip-rule="evenodd" d="M16.23 13C12.01 17.2 9.65 22.86 9.63 28.77L16.24 44.53C20.41 48.73 26.08 51.11 32 51.14L47.77 44.54C51.99 40.35 54.35 34.69 54.37 28.77L47.76 13.01C43.59 8.80999 37.92 6.42999 32 6.39999L16.23 13Z" fill="#8996A8"/>
<path fill-rule="evenodd" clip-rule="evenodd" d="M32 28.77H9.63C9.66 34.69 12.04 40.36 16.24 44.53L32 28.77Z" fill="#D9DBDD"/>
<path fill-rule="evenodd" clip-rule="evenodd" d="M32 28.77V51.14C37.93 51.14 43.62 48.78 47.81 44.58L32 28.77Z" fill="#D9DBDD"/>
<path fill-rule="evenodd" clip-rule="evenodd" d="M32 28.77H54.37C54.37 22.84 52.01 17.15 47.82 12.95L32 28.77Z" fill="#D9DBDD"/>
<path fill-rule="evenodd" clip-rule="evenodd" d="M32 5.92999L26.54 7.07999C22.63 8.07999 19.06 10.12 16.21 12.99L31.99 28.77V5.92999H32Z" fill="#D9DBDD"/>
<path fill-rule="evenodd" clip-rule="evenodd" d="M44.5 16.34C42.24 14.08 39.41 12.48 36.31 11.7H32L19.53 16.37C16.21 19.68 14.34 24.16 14.32 28.84L19.54 41.3C22.84 44.62 27.31 46.5 31.99 46.52L44.48 41.34C47.8 38.03 49.66 33.53 49.66 28.84L44.48 16.34H44.5Z" fill="#EC74A8"/>
<path fill-rule="evenodd" clip-rule="evenodd" d="M32 28.84H14.32C14.34 33.52 16.22 38 19.54 41.3L31.99 28.84H32Z" fill="#82D3B8"/>
<path fill-rule="evenodd" clip-rule="evenodd" d="M32 28.84V46.52C36.69 46.52 41.18 44.65 44.49 41.34L32 28.84Z" fill="#82D3B8"/>
<path fill-rule="evenodd" clip-rule="evenodd" d="M32 28.84H49.68C49.68 24.15 47.82 19.66 44.5 16.34L32 28.84Z" fill="#82D3B8"/>
<path fill-rule="evenodd" clip-rule="evenodd" d="M32 11.7H27.69C24.6 12.49 21.78 14.11 19.53 16.37L32 28.84V11.7Z" fill="#82D3B8"/>
<path fill-rule="evenodd" clip-rule="evenodd" d="M36.77 9.34C36.77 13.54 32 17.67 32 17.67C32 17.67 27.23 13.54 27.23 9.34C27.23 6.71 29.36 5 32 5C34.64 5 36.77 6.71 36.77 9.34Z" fill="#F2D865"/>
<path fill-rule="evenodd" clip-rule="evenodd" d="M17.71 54.62H46.29C47.5 54.62 48.48 55.6 48.48 56.81C48.48 58.02 47.5 59 46.29 59H17.71C16.5 59 15.52 58.02 15.52 56.81C15.52 55.6 16.5 54.62 17.71 54.62Z" fill="#E4ECF0"/>
<path fill-rule="evenodd" clip-rule="evenodd" d="M42.06 54.62C43.27 54.62 44.25 55.6 44.25 56.81C44.25 58.02 43.27 59 42.06 59H46.29C47.5 59 48.48 58.02 48.48 56.81C48.48 55.6 47.5 54.62 46.29 54.62H42.06Z" fill="#D9E3E9"/>
<path d="M32 10.41C32.5523 10.41 33 9.96229 33 9.41C33 8.85772 32.5523 8.41 32 8.41C31.4477 8.41 31 8.85772 31 9.41C31 9.96229 31.4477 10.41 32 10.41Z" fill="#4A4A4A"/>
<path d="M11.24 57.81H14.72C15.14 59.07 16.3 60 17.71 60H46.29C47.69 60 48.85 59.07 49.28 57.81H52.76C54.26 57.81 55.49 56.59 55.49 55.08V51.51C55.49 50.01 54.27 48.78 52.76 48.78H51.66V41.43C54 37.79 55.38 33.47 55.38 28.83C55.38 17.65 47.47 8.09999 36.53 5.93999C35.5 4.73999 33.91 3.98999 32.01 3.98999C30.11 3.98999 28.52 4.73999 27.49 5.93999C16.55 8.09999 8.64 17.65 8.64 28.83C8.64 33.47 10.02 37.79 12.36 41.43V48.77H11.26C9.76 48.77 8.53 49.99 8.53 51.5V55.07C8.53 56.58 9.75 57.8 11.26 57.8L11.24 57.81ZM46.28 58H17.71C17.05 58 16.52 57.47 16.52 56.81C16.52 56.15 17.05 55.62 17.71 55.62H46.29C46.95 55.62 47.48 56.15 47.48 56.81C47.48 57.47 46.95 58 46.29 58H46.28ZM10.68 29.84H13.42C13.66 34.23 15.4 38.2 18.16 41.27L16.22 43.21C12.97 39.64 10.92 34.98 10.68 29.85V29.84ZM31 18.11V26.43L20.95 16.38C22.7 14.83 24.81 13.66 27.15 12.94C28.3 15.39 30.23 17.37 31.01 18.11H31ZM36.86 12.94C39.2 13.65 41.3 14.83 43.06 16.38L33.01 26.43V18.11C33.79 17.37 35.71 15.39 36.87 12.94H36.86ZM47.78 43.2L45.84 41.26C48.6 38.19 50.34 34.22 50.58 29.83H53.32C53.08 34.97 51.03 39.63 47.78 43.19V43.2ZM33 50.15V47.41C37.39 47.17 41.35 45.43 44.43 42.67L46.37 44.61C42.8 47.86 38.14 49.91 33.01 50.15H33ZM34.41 29.83H48.58C48.35 33.67 46.83 37.14 44.43 39.84L34.41 29.83ZM43.01 41.26C40.3 43.66 36.84 45.18 33 45.41V31.25L43.01 41.26ZM19.57 39.85C17.17 37.14 15.65 33.67 15.42 29.84H29.59L19.57 39.85ZM31 31.25V45.41C27.16 45.18 23.69 43.66 20.99 41.26L31 31.25ZM50.59 27.83C50.36 23.48 48.64 19.49 45.86 16.39L47.77 14.48C51.03 18.06 53.05 22.72 53.29 27.82H50.6L50.59 27.83ZM48.59 27.83H34.42L44.45 17.8C46.87 20.53 48.37 24.02 48.6 27.83H48.59ZM29.58 27.83H15.41C15.64 24.02 17.14 20.53 19.56 17.8L29.59 27.83H29.58ZM13.41 27.83H10.72C10.96 22.73 12.97 18.07 16.24 14.49L18.15 16.4C15.37 19.5 13.65 23.48 13.42 27.84L13.41 27.83ZM19.58 42.67C22.65 45.43 26.62 47.17 31.01 47.41V50.15C25.87 49.91 21.22 47.86 17.65 44.61L19.59 42.67H19.58ZM20.13 48.92C23.61 50.99 27.66 52.2 32 52.2C36.34 52.2 40.39 50.99 43.87 48.92V53.61H20.13V48.92ZM53.48 51.5V55.07C53.48 55.48 53.16 55.8 52.75 55.8H49.27C48.85 54.54 47.69 53.61 46.28 53.61H45.86V50.77H52.74C53.15 50.77 53.47 51.09 53.47 51.5H53.48ZM49.65 48.77H45.87V47.59C47.78 46.17 48.59 45.32 49.65 44.09V48.76V48.77ZM46.35 13.07L44.47 14.95C42.52 13.19 40.16 11.88 37.54 11.06C37.68 10.49 37.76 9.90999 37.76 9.32999C37.76 8.97999 37.72 8.63999 37.66 8.31999C40.97 9.22999 43.92 10.86 46.35 13.07ZM31.99 5.98999C34.21 5.98999 35.76 7.35999 35.76 9.32999C35.76 12.14 33.23 15.04 31.99 16.28C30.76 15.04 28.22 12.14 28.22 9.32999C28.22 7.35999 29.77 5.98999 31.99 5.98999ZM26.32 8.31999C26.26 8.64999 26.22 8.97999 26.22 9.32999C26.22 9.90999 26.3 10.49 26.44 11.06C23.82 11.88 21.47 13.19 19.51 14.95L17.63 13.07C20.06 10.86 23.01 9.22999 26.32 8.31999ZM14.35 44.11C15.52 45.46 16.31 46.25 18.13 47.61V48.79H14.35V44.12V44.11ZM10.52 51.51C10.52 51.1 10.84 50.78 11.25 50.78H18.13V53.62H17.71C16.31 53.62 15.15 54.55 14.72 55.81H11.24C10.83 55.81 10.51 55.49 10.51 55.08V51.51H10.52Z" fill="#4A4A4A"/>
</svg>
